<svg xmlns="http://www.w3.org/2000/svg" viewBox="0 0 1200 400" preserveAspectRatio="xMidYMid slice" role="img" aria-label="Bannière café latte">
  <defs>
    <linearGradient id="g" x1="0" y1="0" x2="1" y2="1">
      <stop offset="0" stop-color="#F0E3D3"/><stop offset=".55" stop-color="#D8B894"/><stop offset="1" stop-color="#B0855A"/>
    </linearGradient>
    <radialGradient id="hl" cx="30%" cy="26%" r="62%">
      <stop offset="0" stop-color="#fff" stop-opacity=".42"/><stop offset="1" stop-color="#fff" stop-opacity="0"/>
    </radialGradient>
    <g id="cup" stroke="#fff" stroke-width="5" fill="none" stroke-linecap="round" stroke-linejoin="round">
      <path d="M0 18 h54 v22 a20 20 0 0 1-20 20 H20 A20 20 0 0 1 0 40 Z"/>
      <path d="M54 24 h10 a12 12 0 0 1 0 24 h-8"/>
      <path d="M14 -2 q6 -8 0 -14 M30 -2 q6 -8 0 -14 M46 -2 q6 -8 0 -14"/>
    </g>
    <g id="bean" stroke="#fff" stroke-width="4" fill="none"><ellipse cx="0" cy="0" rx="14" ry="20"/><path d="M0 -18 C-8 -6 -8 6 0 18"/></g>
    <g id="spark" fill="#fff"><path d="M0 -14 L4 -4 L14 0 L4 4 L0 14 L-4 4 L-14 0 L-4 -4 Z"/></g>
  </defs>
  <rect width="1200" height="400" fill="url(#g)"/>
  <rect width="1200" height="400" fill="url(#hl)"/>
  <g opacity=".24"><use href="#cup" transform="translate(140,240) scale(1.7)"/></g>
  <g opacity=".2"><use href="#bean" transform="translate(960,90) rotate(25)"/><use href="#bean" transform="translate(1010,150) rotate(40)"/></g>
  <g opacity=".16"><use href="#cup" transform="translate(920,250) scale(1) rotate(-6)"/></g>
  <g opacity=".5"><use href="#spark" transform="translate(720,110) scale(1)"/></g>
  <rect width="1200" height="400" fill="#000" opacity=".05"/>
</svg>
