<svg xmlns="http://www.w3.org/2000/svg" viewBox="0 0 100 100" role="img" aria-label="Avatar démo">
  <!-- fond circulaire (sera masqué par la bordure circulaire du conteneur) -->
  <rect width="100" height="100" fill="#FBE3C6"/>
  <!-- visage -->
  <circle cx="50" cy="54" r="34" fill="#F4D2A8"/>
  <!-- cheveux -->
  <path d="M16 54 C14 32 30 14 50 14 C70 14 86 30 84 54 C82 42 70 32 50 32 C30 32 18 42 16 54 Z" fill="#5A3A22"/>
  <path d="M20 60 C18 70 22 78 28 80 C24 70 22 62 24 56 Z" fill="#5A3A22"/>
  <path d="M80 60 C82 70 78 78 72 80 C76 70 78 62 76 56 Z" fill="#5A3A22"/>
  <!-- yeux -->
  <circle cx="38" cy="56" r="3.2" fill="#2E1E12"/>
  <circle cx="62" cy="56" r="3.2" fill="#2E1E12"/>
  <!-- sourcils -->
  <path d="M32 48 q6 -3 12 0" stroke="#3B2415" stroke-width="2" fill="none" stroke-linecap="round"/>
  <path d="M56 48 q6 -3 12 0" stroke="#3B2415" stroke-width="2" fill="none" stroke-linecap="round"/>
  <!-- joues -->
  <ellipse cx="28" cy="66" rx="5" ry="3" fill="#F4A6A0" opacity=".55"/>
  <ellipse cx="72" cy="66" rx="5" ry="3" fill="#F4A6A0" opacity=".55"/>
  <!-- sourire -->
  <path d="M38 70 q12 10 24 0" stroke="#3B2415" stroke-width="2.6" fill="none" stroke-linecap="round"/>
</svg>
